<mxfile host="65bd71144e">
    <diagram id="D94uKNzd8agbBFjI-t4-" name="Page-1">
        <mxGraphModel dx="704" dy="751" grid="1" gridSize="10" guides="1" tooltips="1" connect="1" arrows="1" fold="1" page="1" pageScale="1" pageWidth="850" pageHeight="1100" background="none" math="0" shadow="0">
            <root>
                <mxCell id="0"/>
                <mxCell id="1" parent="0"/>
                <mxCell id="2" value="&lt;font style=&quot;font-size: 19px;&quot; color=&quot;#080808&quot;&gt;Inicio&lt;/font&gt;" style="ellipse;whiteSpace=wrap;html=1;fillColor=#FFFFFF;" vertex="1" parent="1">
                    <mxGeometry x="90" y="40" width="120" height="80" as="geometry"/>
                </mxCell>
                <mxCell id="4" value="Procesos/Acciones" style="rounded=0;whiteSpace=wrap;html=1;fontSize=19;fontColor=#080808;fillColor=#FFFFFF;" vertex="1" parent="1">
                    <mxGeometry x="100" y="190" width="180" height="70" as="geometry"/>
                </mxCell>
                <mxCell id="6" style="edgeStyle=none;html=1;fontSize=19;fontColor=#080808;" edge="1" parent="1" source="5">
                    <mxGeometry relative="1" as="geometry">
                        <mxPoint x="320" y="360" as="targetPoint"/>
                    </mxGeometry>
                </mxCell>
                <mxCell id="7" style="edgeStyle=none;html=1;exitX=0;exitY=0.5;exitDx=0;exitDy=0;fontSize=19;fontColor=#080808;" edge="1" parent="1" source="5">
                    <mxGeometry relative="1" as="geometry">
                        <mxPoint x="70" y="360" as="targetPoint"/>
                    </mxGeometry>
                </mxCell>
                <mxCell id="5" value="Desiciones" style="rhombus;whiteSpace=wrap;html=1;fontSize=19;fontColor=#080808;fillColor=#FFFFFF;" vertex="1" parent="1">
                    <mxGeometry x="140" y="300" width="120" height="120" as="geometry"/>
                </mxCell>
                <mxCell id="8" value="Operaciones de entrada y salida" style="shape=parallelogram;perimeter=parallelogramPerimeter;whiteSpace=wrap;html=1;fixedSize=1;fontSize=19;fontColor=#080808;fillColor=#FFFFFF;" vertex="1" parent="1">
                    <mxGeometry x="130" y="470" width="260" height="80" as="geometry"/>
                </mxCell>
            </root>
        </mxGraphModel>
    </diagram>
</mxfile>